<?xml version="1.0" standalone="no"?>
<!DOCTYPE svg PUBLIC "-//W3C//DTD SVG 20010904//EN"
 "http://www.w3.org/TR/2001/REC-SVG-20010904/DTD/svg10.dtd">
<svg version="1.0" xmlns="http://www.w3.org/2000/svg"
 width="1024.000000pt" height="1024.000000pt" viewBox="0 0 1024.000000 1024.000000"
 preserveAspectRatio="xMidYMid meet">

<g transform="translate(0.000000,1024.000000) scale(0.100000,-0.100000)"
fill="#000000" stroke="none">
<path d="M772 6383 l3 -268 29 -50 c16 -27 38 -60 49 -73 25 -27 142 -103 248
-160 l75 -41 45 27 c54 32 96 56 129 74 14 7 27 15 30 18 3 3 21 17 40 30 45
31 110 100 110 117 0 7 3 13 8 13 23 0 32 92 32 330 l0 250 -401 0 -401 0 4
-267z m726 -25 c-5 -246 -9 -268 -70 -324 -43 -40 -111 -86 -192 -129 l-65
-34 -98 55 c-54 30 -99 59 -101 65 -2 5 -9 9 -16 9 -20 0 -71 61 -94 112 -20
44 -22 64 -22 258 l0 210 331 0 331 0 -4 -222z"/>
<path d="M919 6493 c0 -10 0 -103 0 -207 0 -169 2 -190 18 -202 13 -9 52 -13
131 -14 61 0 112 3 112 6 0 3 -15 23 -32 44 -32 38 -35 40 -95 40 l-63 0 0 45
0 45 50 0 50 0 0 45 0 45 -50 0 -50 0 0 40 0 40 70 0 c54 0 70 3 70 14 0 8 3
16 8 18 4 2 18 15 31 31 l24 27 -136 0 c-124 0 -137 -2 -138 -17z"/>
<path d="M1244 6495 c-70 -31 -114 -114 -114 -215 0 -60 4 -73 33 -116 42 -64
96 -94 167 -94 86 1 90 7 90 149 l0 121 -65 0 -65 0 0 -45 c0 -43 1 -45 30
-45 29 0 30 -1 30 -51 l0 -52 -41 6 c-23 3 -52 15 -65 28 -45 42 -44 167 3
213 23 23 34 26 99 26 l74 0 0 45 0 45 -72 -1 c-40 0 -87 -7 -104 -14z"/>
<path d="M4235 6606 c-139 -34 -226 -157 -211 -299 12 -118 58 -164 261 -262
185 -88 205 -108 205 -199 0 -69 -7 -82 -64 -120 -51 -34 -139 -36 -203 -5
-56 27 -118 98 -138 160 -15 45 -19 49 -50 49 l-32 0 4 -92 c6 -137 5 -135 74
-168 84 -39 204 -56 295 -41 133 22 246 100 272 188 23 77 24 119 7 179 -24
85 -80 135 -231 209 -155 77 -186 97 -212 144 -60 106 5 201 137 201 98 0 166
-54 193 -154 11 -43 14 -46 46 -46 l34 0 -6 98 c-4 53 -9 104 -12 113 -14 49
-241 76 -369 45z"/>
<path d="M6452 6609 c-65 -11 -162 -51 -221 -92 -169 -116 -243 -347 -180
-561 54 -185 186 -289 408 -323 95 -15 112 -15 222 1 66 9 145 27 177 39 l57
23 5 141 c3 78 9 145 13 150 5 4 23 13 40 19 28 9 32 16 32 45 l0 34 -190 0
-190 0 -3 -36 c-3 -36 -2 -36 40 -42 62 -8 68 -23 68 -154 l0 -113 -32 -20
c-52 -32 -157 -28 -233 9 -122 59 -186 159 -206 323 -28 229 34 385 186 466
42 22 62 27 130 27 134 0 206 -55 249 -187 3 -12 16 -18 36 -18 l30 0 0 108 0
108 -37 18 c-85 40 -271 56 -401 35z"/>
<path d="M3374 6601 c-2 -2 -4 -10 -4 -18 0 -7 -9 -32 -19 -56 -20 -43 -51
-119 -78 -192 -26 -73 -164 -419 -189 -476 -13 -31 -24 -60 -24 -65 0 -23 -56
-85 -84 -92 -24 -6 -32 -14 -34 -35 l-3 -27 160 0 161 0 0 30 c0 26 -4 30 -28
30 -15 0 -38 7 -51 16 -21 15 -23 23 -18 64 3 25 17 72 31 103 l25 57 170 0
171 0 6 -27 c4 -16 18 -52 31 -81 25 -58 30 -107 11 -118 -7 -4 -28 -10 -48
-14 -29 -4 -35 -9 -35 -30 l0 -25 205 0 205 0 0 24 c0 19 -7 26 -28 32 -16 4
-35 16 -43 26 -19 23 -83 159 -91 192 -3 14 -9 31 -13 36 -4 6 -19 42 -33 80
-53 145 -168 442 -187 481 -11 23 -20 48 -20 57 0 9 -5 19 -12 23 -13 8 -127
12 -134 5z m30 -268 c10 -27 28 -74 42 -106 13 -32 24 -63 24 -68 0 -6 11 -35
25 -65 14 -30 25 -59 25 -64 0 -6 -55 -10 -136 -10 l-136 0 7 28 c6 25 18 58
91 249 13 34 24 66 24 72 0 27 19 7 34 -36z"/>
<path d="M7469 6583 c-6 -16 -21 -55 -34 -88 -12 -33 -32 -82 -43 -110 -29
-71 -69 -174 -166 -425 -76 -196 -111 -253 -161 -262 -13 -2 -21 -12 -23 -31
l-3 -27 160 0 161 0 0 30 c0 26 -4 30 -26 30 -33 0 -61 15 -74 41 -9 16 -5 38
21 110 l32 89 168 0 168 0 20 -45 c11 -25 28 -70 37 -100 17 -52 17 -55 0 -74
-10 -11 -32 -21 -50 -23 -26 -2 -31 -7 -31 -28 l0 -25 208 -3 208 -2 -3 27
c-2 21 -10 29 -35 35 -35 9 -77 68 -106 148 -8 25 -41 110 -72 190 -32 80 -63
161 -70 180 -7 19 -33 85 -58 145 -24 61 -48 121 -52 135 -4 14 -16 44 -26 68
l-19 42 -60 0 c-57 0 -61 -2 -71 -27z m28 -230 c6 -21 25 -74 43 -118 17 -44
40 -102 50 -130 10 -27 21 -58 25 -67 7 -17 -4 -18 -135 -18 -131 0 -142 1
-135 18 29 70 81 210 103 275 14 42 29 77 32 77 3 0 11 -17 17 -37z"/>
<path d="M2130 6576 c0 -18 7 -25 28 -29 16 -3 37 -18 48 -34 17 -26 18 -54
19 -388 0 -331 -2 -363 -18 -388 -10 -16 -31 -30 -47 -34 -25 -4 -30 -10 -30
-34 l0 -29 363 2 362 3 6 75 c15 182 16 175 -6 175 -12 0 -27 -14 -40 -36 -60
-106 -108 -129 -270 -129 -131 0 -127 -7 -123 205 l3 160 89 -1 c87 -1 90 -2
118 -33 15 -17 28 -42 28 -56 0 -22 4 -25 35 -25 l35 0 0 150 0 150 -30 0
c-31 0 -34 -3 -44 -52 -10 -43 -52 -59 -149 -56 l-82 3 0 175 0 175 74 3 c149
6 234 -33 260 -118 11 -36 15 -41 39 -38 l27 3 3 113 3 112 -351 0 -350 0 0
-24z"/>
<path d="M4700 6577 c0 -18 8 -25 43 -35 49 -14 72 -32 109 -87 28 -43 200
-326 235 -388 9 -15 13 -72 13 -174 0 -144 -1 -153 -22 -173 -12 -11 -34 -20
-50 -20 -24 0 -28 -4 -28 -30 l0 -30 205 0 205 0 0 30 c0 26 -4 30 -26 30 -28
0 -65 16 -76 34 -4 6 -8 79 -8 162 0 141 2 153 23 185 36 54 170 267 191 303
42 76 92 132 139 155 31 15 47 29 47 42 0 18 -10 19 -155 19 l-155 0 0 -25 c0
-20 5 -25 25 -25 14 0 34 -9 46 -21 24 -24 20 -45 -26 -114 -18 -27 -62 -96
-98 -152 -36 -55 -70 -104 -76 -107 -6 -4 -25 18 -43 49 -18 31 -46 78 -63
105 -68 110 -105 179 -105 193 0 20 24 38 63 46 23 5 33 13 35 29 l3 22 -225
0 -226 0 0 -23z"/>
<path d="M7976 6543 c-3 -32 -9 -89 -12 -126 l-7 -68 33 3 c28 3 34 9 51 52
34 91 77 116 202 116 46 0 67 -4 68 -12 0 -7 1 -178 2 -380 l1 -368 -24 -25
c-14 -15 -40 -28 -62 -31 -34 -6 -38 -10 -38 -35 l0 -29 230 0 230 0 0 29 c0
26 -4 29 -42 34 -29 4 -50 14 -65 32 -23 26 -23 26 -23 406 l0 379 69 0 c37 0
83 -5 102 -11 43 -14 92 -67 109 -119 11 -34 17 -40 42 -40 28 0 28 1 28 58 0
31 -3 87 -7 125 l-6 67 -437 0 -437 0 -7 -57z"/>
<path d="M8960 6577 c0 -17 8 -25 33 -32 22 -7 38 -21 49 -45 16 -31 18 -72
18 -380 0 -327 -1 -347 -20 -378 -13 -21 -31 -35 -50 -39 -25 -4 -30 -10 -30
-34 l0 -29 360 0 359 0 5 33 c8 49 26 198 26 214 0 7 -11 13 -25 13 -19 0 -28
-9 -44 -45 -23 -53 -69 -95 -120 -112 -20 -6 -84 -12 -143 -12 -97 -1 -108 1
-118 19 -6 12 -9 81 -8 182 l3 163 40 3 c55 5 139 -7 159 -21 9 -7 23 -30 30
-52 13 -36 18 -40 48 -40 l33 0 3 148 3 147 -35 0 c-33 0 -36 -3 -46 -40 -15
-56 -47 -70 -155 -70 l-85 0 0 174 c0 199 -6 186 95 186 140 0 208 -32 242
-115 15 -39 22 -45 43 -43 25 3 25 3 25 113 l0 110 -347 3 -348 2 0 -23z"/>
</g>
</svg>
